{"title":"Precious 2009 DVDrip English Klam","uid":7941956,"size":1961510243,"categoryP":"video","categoryS":"movies","magnet":"?xt=urn:btih:5d874e005a400a7e083c386678c9c18575e437f9&amp;dn=Precious+2009+DVDrip+English+Klam&amp;tr=udp%3A%2F%2Ftracker.openbittorrent.com%3A80&amp;tr=udp%3A%2F%2Fopen.demonii.com%3A1337&amp;tr=udp%3A%2F%2Ftracker.coppersurfer.tk%3A6969&amp;tr=udp%3A%2F%2Fexodus.desync.com%3A6969","seeders":1,"leechers":0,"uploader":"Klambake","files":-1,"time":1356014197,"description":"With: Gabourey 'Gabby' Sidibe, Paula Patton and Mo'Nique\n\nDe film vertelt het verhaal van Claireece &quot;Precious&quot; Jones (Gabourey Sidibe), een zestienjarig Afro-Amerikaans meisje geboren in Harlem, in een keiharde omgeving. Het leven lacht haar niet bepaald toe: ze is voor de tweede keer in verwachting van haar vader. Thuis loopt ze op eieren om te vermijden dat haar moeder (Mo'Nique), een intens boze vrouw, haar mishandelt. Haar leven verandert als ze de kans krijgt over te stappen naar een alternatieve school. Daar komt ze onder de hoede van Ms. Rain (Paula Patton). Een vrouw die haar begrijpt en haar laat voelen dat ze bijzonder is en talenten heeft. Hier begint Precious haar nieuwe toekomst weg van de duisternis, de pijn en liefdeloze omgeving en neemt ze haar jonge leven in eigen hand.\n\nIn New York City's Harlem circa 1987, an overweight, abused, illiterate teen who is pregnant with her second child is invited to enroll in an alternative school in hopes that her life can head in a new direction. \n &lt;a href=&quot;\nhttp://www.imdb.com/title/tt0929632&quot; rel=&quot;nofollow&quot; target=&quot;_NEW&quot;&gt;\nhttp://www.imdb.com/title/tt0929632&lt;/a&gt;\t\n\n------------------------ Dutch Friends ------------------------\n---------------------------------------------------------------\n- Bezoek ook eens mijn vrienden op: &lt;a href=&quot; http://www.Film-Test.nl&quot; rel=&quot;nofollow&quot; target=&quot;_NEW&quot;&gt; http://www.Film-Test.nl&lt;/a&gt; --\n----- voor mijn Nederlandse Sync. ondertitels ---- en meer ----\n------- http://www.Film-Test.nl ---- Over Films en meer -------\n---------------------------------------------------------------\n\nGeneral:\n\nComplete name                    : PreciousPrecious.avi\nFormat                           : AVI\nFormat/Info                      : Audio Video Interleave\nFile size                        : 1.83 GiB\nDuration                         : 1h 49mn\nOverall bit rate                 : 2 381 Kbps\n\nVideo:\n\nFormat                           : MPEG-4 Visual\nFormat profile                   : Simple@L3\nFormat settings, BVOP            : No\nFormat settings, QPel            : No\nFormat settings, GMC             : No warppoints\nFormat settings, Matrix          : Default (H.263)\nCodec ID                         : XVID\nCodec ID/Hint                    : XviD\nDuration                         : 1h 49mn\nBit rate                         : 1 922 Kbps\nWidth                            : 652 pixels\nHeight                           : 352 pixels\nDisplay aspect ratio             : 1.852\nFrame rate                       : 25.000 fps\nColor space                      : YUV\nChroma subsampling               : 4:2:0\nBit depth                        : 8 bits\nScan type                        : Progressive\nCompression mode                 : Lossy\nBits/(Pixel*Frame)               : 0.335\nStream size                      : 1.47 GiB (81%)\nWriting library                  : XviD 1.1.2 (UTC 2006-11-01)\n\nAudio:\n\nFormat                           : AC-3\nFormat/Info                      : Audio Coding 3\nMode extension                   : CM (complete main)\nCodec ID                         : 2000\nDuration                         : 1h 49mn\nBit rate mode                    : Constant\nBit rate                         : 448 Kbps\nChannel(s)                       : 6 channels\nChannel positions                : Front: L C R, Side: L R, LFE\nSampling rate                    : 48.0 KHz\nBit depth                        : 16 bits\nCompression mode                 : Lossy\nStream size                      : 352 MiB (19%)\nAlignment                        : Aligned on interleaves\nInterleave, duration             : 32 ms (0.80 video frame)\nInterleave, preload duration     : 192 ms","torrent":{"xt":"urn:btih:5d874e005a400a7e083c386678c9c18575e437f9","amp;dn":"Precious+2009+DVDrip+English+Klam","amp;tr":["udp%3A%2F%2Ftracker.openbittorrent.com%3A80","udp%3A%2F%2Fopen.demonii.com%3A1337","udp%3A%2F%2Ftracker.coppersurfer.tk%3A6969","udp%3A%2F%2Fexodus.desync.com%3A6969"],"infoHash":"5d874e005a400a7e083c386678c9c18575e437f9","infoHashBuffer":{"type":"Buffer","data":[93,135,78,0,90,64,10,126,8,60,56,102,120,201,193,133,117,228,55,249]},"announce":[],"urlList":[]}}